<svg width="217" height="64" viewBox="0 0 217 64" fill="none" xmlns="http://www.w3.org/2000/svg">
<path d="M33.738 24.2144V8.64294H54.4999V24.2144H33.738ZM7.78564 34.5953V8.64294H28.5476V34.5953H7.78564ZM33.738 55.3572V29.4049H54.4999V55.3572H33.738ZM7.78564 55.3572V39.7858H28.5476V55.3572H7.78564Z" fill="#AFC1FF"/>
<path d="M65.81 37.857C66.7473 37.857 67.771 37.672 68.881 37.302C70.0157 36.9073 71.0023 36.5003 71.841 36.081C72.7043 35.6617 73.7033 35.3287 74.838 35.082C75.9727 34.8107 77.058 34.7613 78.094 34.934C77.6747 35.6493 77.1567 36.1673 76.54 36.488C75.9233 36.784 74.9737 37.117 73.691 37.487C73.5677 37.5117 73.469 37.5363 73.395 37.561C72.877 37.709 71.841 38.042 70.287 38.56C68.733 39.078 67.5243 39.4357 66.661 39.633C65.625 39.855 64.811 39.707 64.219 39.189C63.627 38.671 63.2817 37.968 63.183 37.08C63.109 36.1673 63.1707 35.2177 63.368 34.231C63.59 33.2443 63.9107 32.4057 64.33 31.715C64.9467 30.7037 65.7977 29.643 66.883 28.533C67.993 27.3983 68.992 26.609 69.88 26.165C70.028 26.1157 70.287 25.9923 70.657 25.795C71.027 25.573 71.3353 25.4127 71.582 25.314C71.8533 25.1907 72.1 25.129 72.322 25.129C72.6673 25.129 72.914 25.2893 73.062 25.61C73.21 25.9307 73.1853 26.2267 72.988 26.498C72.8893 26.6707 72.7907 26.8063 72.692 26.905C72.618 27.0037 72.4947 27.1147 72.322 27.238C72.1493 27.3367 72.0137 27.4107 71.915 27.46C71.841 27.5093 71.6313 27.608 71.286 27.756C70.9653 27.904 70.7187 28.0273 70.546 28.126C69.7813 28.4713 69.1153 28.8907 68.548 29.384C68.0053 29.8527 67.4257 30.4447 66.809 31.16C66.587 31.4067 66.3897 31.6533 66.217 31.9C66.069 32.122 65.9457 32.3193 65.847 32.492C65.7483 32.64 65.6497 32.8497 65.551 33.121C65.4523 33.3677 65.3783 33.5527 65.329 33.676C65.2797 33.7747 65.1933 34.009 65.07 34.379C64.9713 34.7243 64.8973 34.9833 64.848 35.156C64.7493 35.452 64.6753 35.7603 64.626 36.081C64.6013 36.377 64.6013 36.673 64.626 36.969C64.6753 37.2403 64.7987 37.4623 64.996 37.635C65.1933 37.783 65.4647 37.857 65.81 37.857ZM79.8937 30.494C79.9184 29.828 79.869 29.051 79.7457 28.163C79.647 27.275 79.5237 26.5103 79.3757 25.869C79.2524 25.203 79.1907 24.5123 79.1907 23.797C79.1907 23.0817 79.314 22.502 79.5607 22.058C79.61 22.0087 79.6717 22.0087 79.7457 22.058C79.8444 22.1073 79.8937 22.132 79.8937 22.132C79.9184 22.132 79.9677 22.169 80.0417 22.243L80.1527 22.354C80.4487 22.6253 80.6954 22.9707 80.8927 23.39C81.09 23.8093 81.2257 24.3643 81.2997 25.055C81.3737 25.721 81.4107 26.2513 81.4107 26.646C81.4354 27.0407 81.4354 27.719 81.4107 28.681C81.4107 29.6183 81.4107 30.198 81.4107 30.42C81.4107 30.716 81.4724 31.1477 81.5957 31.715C81.6697 31.641 81.9164 31.4437 82.3357 31.123C82.755 30.7777 83.0264 30.5557 83.1497 30.457C83.2977 30.3583 83.5567 30.1733 83.9267 29.902C84.2967 29.6307 84.568 29.4457 84.7407 29.347C84.938 29.2237 85.2094 29.0633 85.5547 28.866C85.9 28.6687 86.1837 28.533 86.4057 28.459C86.6524 28.385 86.9237 28.311 87.2197 28.237C87.5404 28.163 87.8364 28.126 88.1077 28.126C89.415 28.126 90.0687 29.1373 90.0687 31.16C90.0687 32.0727 90.1304 33.343 90.2537 34.971C90.4017 36.5743 90.4757 37.4747 90.4757 37.672C90.4757 37.8693 90.562 38.0667 90.7347 38.264C90.932 38.4367 91.1294 38.56 91.3267 38.634C91.4747 38.4613 91.6474 38.3997 91.8447 38.449C91.9927 38.4737 92.2147 38.523 92.5107 38.597C92.8314 38.671 93.0287 38.7203 93.1027 38.745C93.2014 38.745 93.337 38.782 93.5097 38.856C93.707 38.9053 93.818 38.967 93.8427 39.041C93.892 39.0903 93.966 39.1767 94.0647 39.3C94.1634 39.3987 94.2374 39.522 94.2867 39.67C94.336 39.7933 94.3977 39.966 94.4717 40.188L90.6607 41.113C90.0194 41.0883 89.5137 40.891 89.1437 40.521C88.7737 40.1263 88.5517 39.6453 88.4777 39.078C88.4037 38.486 88.3544 37.8323 88.3297 37.117C88.3297 36.377 88.3544 35.6493 88.4037 34.934C88.4777 34.194 88.49 33.491 88.4407 32.825C88.416 32.5043 88.379 32.2453 88.3297 32.048C88.305 31.826 88.268 31.5917 88.2187 31.345C88.1694 31.0983 88.0954 30.9133 87.9967 30.79C87.898 30.6667 87.7747 30.5557 87.6267 30.457C87.4787 30.3583 87.2937 30.3213 87.0717 30.346C86.8497 30.3707 86.5784 30.4447 86.2577 30.568C85.4437 30.864 84.5927 31.493 83.7047 32.455C82.8414 33.417 82.237 34.342 81.8917 35.23C81.719 35.6987 81.5834 36.5497 81.4847 37.783C81.386 39.0657 80.942 39.8673 80.1527 40.188C79.758 39.374 79.5237 38.4737 79.4497 37.487C79.3757 36.5003 79.425 35.193 79.5977 33.565C79.795 31.9123 79.8937 30.8887 79.8937 30.494ZM107.99 32.603C108.015 31.8383 107.941 31.1353 107.768 30.494C107.595 29.8527 107.275 29.3593 106.806 29.014C106.337 28.644 105.77 28.57 105.104 28.792C103.155 29.458 101.503 30.494 100.146 31.9C99.702 32.3193 99.295 32.4057 98.925 32.159C98.5797 31.8877 98.407 31.4807 98.407 30.938C98.407 30.5187 98.629 30.1117 99.073 29.717C99.5417 29.2977 100.035 28.9647 100.553 28.718C101.071 28.4467 101.7 28.1507 102.44 27.83C103.18 27.4847 103.673 27.2503 103.92 27.127C104.512 26.7817 104.956 26.5473 105.252 26.424C105.573 26.3007 105.918 26.239 106.288 26.239C106.683 26.2143 107.09 26.3007 107.509 26.498C107.805 26.6213 108.064 26.8927 108.286 27.312C109.667 29.7787 110.358 32.1343 110.358 34.379C110.358 34.6257 110.592 35.341 111.061 36.525C111.554 37.6843 111.801 38.4243 111.801 38.745C111.801 39.115 111.69 39.4973 111.468 39.892C111.271 40.2867 111.024 40.484 110.728 40.484C110.358 40.4593 110.05 40.3483 109.803 40.151C109.556 39.929 109.371 39.707 109.248 39.485C109.149 39.2383 109.026 38.893 108.878 38.449C108.533 38.5723 107.953 38.8067 107.139 39.152C106.325 39.4973 105.684 39.7563 105.215 39.929C104.771 40.077 104.204 40.2743 103.513 40.521C102.847 40.743 102.218 40.9033 101.626 41.002C101.059 41.1007 100.491 41.15 99.924 41.15C98.0247 41.15 96.7173 40.447 96.002 39.041C95.8787 38.6463 95.8047 38.301 95.78 38.005C95.78 37.6843 95.891 37.3637 96.113 37.043C96.3597 36.6977 96.6063 36.414 96.853 36.192C97.0997 35.9453 97.408 35.6987 97.778 35.452C98.1727 35.2053 98.518 34.9957 98.814 34.823C99.1347 34.6503 99.4677 34.5023 99.813 34.379C101.54 33.5897 104.006 33.0347 107.213 32.714C107.558 32.6647 107.817 32.6277 107.99 32.603ZM98.037 38.449C99.0483 38.7203 100.023 38.8683 100.96 38.893C101.897 38.893 102.847 38.7573 103.809 38.486C104.796 38.2147 105.671 37.9187 106.436 37.598C107.201 37.2527 107.916 36.858 108.582 36.414C108.039 35.6 107.188 35.082 106.029 34.86C104.894 34.6133 103.76 34.638 102.625 34.934C101.515 35.2053 100.504 35.6617 99.591 36.303C98.6783 36.9443 98.1603 37.6597 98.037 38.449ZM116.206 40.188C115.466 40.0893 114.874 39.7193 114.43 39.078C114.01 38.412 113.764 37.598 113.69 36.636C113.64 35.674 113.653 34.7367 113.727 33.824C113.801 32.9113 113.949 32.0233 114.171 31.16C114.171 31.012 114.232 30.2473 114.356 28.866C114.504 27.46 114.923 26.757 115.614 26.757C115.811 26.757 115.984 26.7817 116.132 26.831C116.28 26.8803 116.391 26.9667 116.465 27.09C116.563 27.2133 116.637 27.3243 116.687 27.423C116.761 27.5217 116.798 27.6697 116.798 27.867C116.798 28.0397 116.798 28.1877 116.798 28.311C116.822 28.4343 116.81 28.6193 116.761 28.866C116.736 29.088 116.711 29.2483 116.687 29.347C116.687 29.4457 116.662 29.6183 116.613 29.865C116.563 30.087 116.526 30.2227 116.502 30.272C117.094 30.42 118.167 30.4447 119.721 30.346C121.299 30.2473 122.372 30.309 122.94 30.531C123.482 30.7037 123.963 30.9997 124.383 31.419C124.013 31.6657 123.384 31.8753 122.496 32.048C121.608 32.196 120.769 32.307 119.98 32.381C119.19 32.4303 118.45 32.603 117.76 32.899C117.069 33.195 116.662 33.6143 116.539 34.157C116.415 34.7243 116.354 35.7357 116.354 37.191C116.354 38.6463 116.304 39.6453 116.206 40.188ZM128.215 40.04C126.932 39.9907 126.291 39.263 126.291 37.857C126.291 37.5117 126.316 36.8827 126.365 35.97C126.414 35.0327 126.427 34.2063 126.402 33.491C126.402 32.7757 126.365 32.2083 126.291 31.789C126.217 31.4683 125.921 31.0243 125.403 30.457C124.885 29.865 124.663 29.4087 124.737 29.088C124.786 28.9153 124.996 28.718 125.366 28.496C125.761 28.2493 125.958 27.9657 125.958 27.645C126.057 27.1517 126.007 26.2883 125.81 25.055C125.637 23.797 125.662 23.0077 125.884 22.687C126.007 22.465 126.242 22.354 126.587 22.354C127.352 22.354 127.808 23.131 127.956 24.685C128.055 26.2637 128.178 27.1393 128.326 27.312C128.474 27.5093 128.721 27.6697 129.066 27.793C129.411 27.9163 129.868 28.015 130.435 28.089C131.002 28.163 131.471 28.2247 131.841 28.274C132.236 28.3233 132.791 28.3727 133.506 28.422C134.221 28.4713 134.653 28.496 134.801 28.496C132.458 29.1867 131.089 29.5813 130.694 29.68C129.609 29.902 128.955 30.0993 128.733 30.272C128.289 30.5927 128.067 31.1723 128.067 32.011C128.067 33.3677 128.116 34.4777 128.215 35.341C128.338 36.1797 128.573 37.0183 128.918 37.857C129.263 37.7583 129.584 37.672 129.88 37.598C130.176 37.4993 130.373 37.4377 130.472 37.413C130.595 37.3637 130.756 37.3267 130.953 37.302C131.175 37.2773 131.471 37.265 131.841 37.265C131.742 37.9557 131.311 38.597 130.546 39.189C129.781 39.7563 129.004 40.04 128.215 40.04ZM134.05 28.496C134.864 28.2 135.53 28.1877 136.048 28.459C136.591 28.7303 137.245 29.3347 138.009 30.272C138.305 30.6173 138.737 31.1847 139.304 31.974C139.896 32.7633 140.439 33.4417 140.932 34.009C141.426 34.5517 141.956 35.0573 142.523 35.526C142.795 35.7233 143.054 35.8343 143.3 35.859C143.547 35.8837 143.769 35.822 143.966 35.674C144.164 35.526 144.336 35.3657 144.484 35.193C144.657 35.0203 144.83 34.8107 145.002 34.564C145.2 34.3173 145.348 34.1447 145.446 34.046C146.754 32.6893 147.74 31.5423 148.406 30.605C149.072 29.6677 149.689 28.4837 150.256 27.053C150.577 26.239 150.996 25.832 151.514 25.832C151.786 25.832 152.069 26.0047 152.365 26.35C152.661 26.6707 152.797 26.9913 152.772 27.312C152.772 27.682 152.526 28.2493 152.032 29.014C151.564 29.7787 151.317 30.198 151.292 30.272C150.996 30.8887 150.059 32.1343 148.48 34.009C146.902 35.859 146.088 36.9197 146.038 37.191C145.718 37.931 145.298 38.634 144.78 39.3C144.262 39.966 143.794 40.299 143.374 40.299C143.004 40.299 142.733 40.1633 142.56 39.892C142.388 39.6207 142.289 39.3123 142.264 38.967C142.24 38.6217 142.178 38.2517 142.079 37.857C141.981 37.4623 141.833 37.1787 141.635 37.006L135.715 30.975C134.901 30.161 134.346 29.3347 134.05 28.496ZM156.019 29.162C155.649 33.0593 155.661 35.859 156.056 37.561C157.092 37.487 158.227 37.043 159.46 36.229C160.718 35.3903 161.532 34.5763 161.902 33.787C162.173 33.3923 162.371 32.3687 162.494 30.716C162.642 29.0387 162.839 28.015 163.086 27.645C163.851 27.9163 164.332 28.4343 164.529 29.199C164.751 29.9637 164.85 31.0983 164.825 32.603C164.825 32.8003 164.874 33.2443 164.973 33.935C165.072 34.601 165.121 35.0327 165.121 35.23C165.072 35.6247 165.133 35.9577 165.306 36.229C165.503 36.4757 165.787 36.6853 166.157 36.858C166.527 37.0307 166.872 37.1663 167.193 37.265C167.514 37.339 167.896 37.4253 168.34 37.524C168.463 37.524 168.55 37.5363 168.599 37.561C168.229 37.931 167.921 38.227 167.674 38.449C167.427 38.6463 167.094 38.8437 166.675 39.041C166.256 39.2137 165.824 39.3 165.38 39.3C164.369 39.3 163.653 38.856 163.234 37.968C163.012 37.5487 162.765 37.0307 162.494 36.414C159.534 38.7573 157.302 39.966 155.797 40.04C155.476 40.04 155.193 39.9783 154.946 39.855C154.724 39.7317 154.551 39.5713 154.428 39.374C154.305 39.1767 154.206 38.9053 154.132 38.56C154.058 38.2147 154.021 37.894 154.021 37.598C154.021 37.302 154.021 36.932 154.021 36.488C154.07 34.268 153.959 31.6533 153.688 28.644C153.663 28.1753 153.75 27.7067 153.947 27.238C154.169 26.7693 154.453 26.5103 154.798 26.461C155.119 26.4363 155.415 26.757 155.686 27.423C155.957 28.089 156.068 28.6687 156.019 29.162ZM177.256 30.494C178.07 30.0253 178.933 29.7293 179.846 29.606C180.783 29.458 181.597 29.569 182.288 29.939C182.978 30.309 183.324 30.938 183.324 31.826C183.324 32.5167 182.991 33.195 182.325 33.861C181.683 34.5023 180.98 34.9587 180.216 35.23C179.796 35.4027 179.278 35.5877 178.662 35.785C178.07 35.9577 177.613 36.0933 177.293 36.192C176.997 36.2907 176.651 36.4633 176.257 36.71C175.887 36.9567 175.554 37.2403 175.258 37.561C176.318 37.8323 177.478 37.857 178.736 37.635C180.018 37.3883 181.116 37.0677 182.029 36.673C182.941 36.2783 184.014 35.896 185.248 35.526C186.506 35.1313 187.653 34.934 188.689 34.934C188.541 35.6 188.171 36.118 187.579 36.488C187.307 36.6607 186.765 36.9197 185.951 37.265C185.137 37.6103 184.039 38.0543 182.658 38.597C181.276 39.115 180.549 39.3863 180.475 39.411C179.71 39.7317 178.933 39.966 178.144 40.114C177.354 40.2373 176.565 40.2497 175.776 40.151C174.986 40.0277 174.333 39.744 173.815 39.3C173.716 39.2507 173.519 39.0657 173.223 38.745C172.927 38.4243 172.68 38.2517 172.483 38.227C172.31 38.227 171.903 38.3133 171.262 38.486C170.645 38.634 170.201 38.7203 169.93 38.745C169.56 38.7697 169.276 38.6463 169.079 38.375C168.881 38.1037 168.783 37.7953 168.783 37.45C168.783 37.154 168.894 36.9567 169.116 36.858C169.338 36.7347 169.584 36.6853 169.856 36.71C170.152 36.71 170.472 36.71 170.818 36.71C171.188 36.6853 171.484 36.6113 171.706 36.488C172.322 36.3153 172.717 36.1303 172.89 35.933C173.062 35.711 173.309 35.1807 173.63 34.342C173.753 33.972 173.876 33.6513 174 33.38C174.148 33.084 174.32 32.8127 174.518 32.566C174.74 32.3193 174.9 32.1343 174.999 32.011C175.097 31.8877 175.319 31.715 175.665 31.493C176.01 31.271 176.232 31.123 176.331 31.049C176.454 30.975 176.762 30.79 177.256 30.494ZM175.554 34.638C176.442 34.6873 177.28 34.564 178.07 34.268C178.859 33.972 179.488 33.639 179.957 33.269C180.425 32.899 181.005 32.381 181.696 31.715C180.339 31.5423 179.13 31.7397 178.07 32.307C177.009 32.8743 176.17 33.6513 175.554 34.638Z" fill="#AFC1FF"/>
</svg>
